<svg width="125" height="124" viewBox="0 0 125 124" fill="none" xmlns="http://www.w3.org/2000/svg">
<path d="M18.3687 76.7854C17.9191 76.7854 17.4879 76.6068 17.1699 76.2889C16.852 75.971 16.6734 75.5398 16.6734 75.0901V47.9545C16.6734 47.5048 16.852 47.0736 17.1699 46.7557C17.4879 46.4378 17.9191 46.2592 18.3687 46.2592C18.8183 46.2592 19.2495 46.4378 19.5675 46.7557C19.8854 47.0736 20.064 47.5048 20.064 47.9545V75.0901C20.064 75.5398 19.8854 75.971 19.5675 76.2889C19.2495 76.6068 18.8183 76.7854 18.3687 76.7854Z" fill="#DADADA"/>
<path d="M62.6667 51.4865C62.2171 51.4865 61.7859 51.3079 61.468 50.99C61.15 50.6721 60.9714 50.2409 60.9714 49.7912V28.9185C60.9714 28.4689 61.15 28.0377 61.468 27.7198C61.7859 27.4018 62.2171 27.2232 62.6667 27.2232C63.1164 27.2232 63.5476 27.4018 63.8655 27.7198C64.1834 28.0377 64.3621 28.4689 64.3621 28.9185V49.7951C64.361 50.2441 64.182 50.6743 63.8641 50.9914C63.5463 51.3085 63.1157 51.4865 62.6667 51.4865Z" fill="#DADADA"/>
<path d="M62.6667 95.3545C62.2171 95.3545 61.7859 95.1759 61.468 94.8579C61.15 94.54 60.9714 94.1088 60.9714 93.6592V75.4021C60.9714 74.9525 61.15 74.5213 61.468 74.2033C61.7859 73.8854 62.2171 73.7068 62.6667 73.7068C63.1164 73.7068 63.5476 73.8854 63.8655 74.2033C64.1834 74.5213 64.3621 74.9525 64.3621 75.4021V93.6592C64.3621 94.1088 64.1834 94.54 63.8655 94.8579C63.5476 95.1759 63.1164 95.3545 62.6667 95.3545Z" fill="#DADADA"/>
<path d="M106.965 76.0589C106.515 76.0589 106.084 75.8803 105.766 75.5623C105.448 75.2444 105.269 74.8132 105.269 74.3636V48.681C105.269 48.2314 105.448 47.8002 105.766 47.4823C106.084 47.1643 106.515 46.9857 106.965 46.9857C107.414 46.9857 107.846 47.1643 108.164 47.4823C108.481 47.8002 108.66 48.2314 108.66 48.681V74.3636C108.66 74.8132 108.481 75.2444 108.164 75.5623C107.846 75.8803 107.414 76.0589 106.965 76.0589Z" fill="#DADADA"/>
<path d="M94.2141 38.017C93.8964 38.0171 93.5851 37.9274 93.316 37.7584L73.6417 25.4398C73.453 25.3216 73.2894 25.1675 73.1602 24.9861C73.031 24.8048 72.9389 24.5998 72.8889 24.3828C72.7881 23.9446 72.8655 23.4843 73.1041 23.1031C73.3426 22.722 73.7228 22.4512 74.161 22.3504C74.5992 22.2495 75.0595 22.3269 75.4407 22.5655L95.1199 34.8851C95.4318 35.0805 95.6717 35.3722 95.8032 35.716C95.9347 36.0598 95.9508 36.4371 95.8489 36.7909C95.747 37.1446 95.5328 37.4556 95.2386 37.6768C94.9443 37.898 94.5861 38.0174 94.218 38.017H94.2141Z" fill="#DADADA"/>
<path d="M75.1762 109.438C74.812 109.439 74.4573 109.322 74.1646 109.105C73.8719 108.888 73.6569 108.583 73.5512 108.235C73.4456 107.886 73.455 107.513 73.5781 107.17C73.7011 106.827 73.9314 106.533 74.2346 106.331L94.5561 92.7989C94.9304 92.5498 95.3884 92.4596 95.8292 92.5482C96.27 92.6367 96.6576 92.8968 96.9067 93.2712C97.1558 93.6455 97.246 94.1035 97.1574 94.5443C97.0689 94.9851 96.8088 95.3727 96.4345 95.6218L76.114 109.154C75.8363 109.34 75.51 109.438 75.1762 109.438Z" fill="#DADADA"/>
<path d="M30.5924 38.3474C30.2243 38.3478 29.8661 38.2283 29.5718 38.0071C29.2776 37.7859 29.0633 37.4749 28.9615 37.1212C28.8596 36.7674 28.8756 36.3902 29.0072 36.0463C29.1387 35.7025 29.3786 35.4108 29.6905 35.2154L50.8955 21.9377C51.0842 21.8196 51.2944 21.7398 51.5139 21.7029C51.7335 21.666 51.9582 21.6727 52.1752 21.7226C52.3921 21.7725 52.5971 21.8647 52.7785 21.9939C52.9599 22.123 53.114 22.2866 53.2321 22.4754C53.3502 22.6641 53.43 22.8743 53.4669 23.0938C53.5038 23.3134 53.4971 23.5381 53.4472 23.755C53.3973 23.972 53.3051 24.177 53.176 24.3584C53.0468 24.5397 52.8832 24.6939 52.6945 24.812L31.4895 38.0887C31.2207 38.2576 30.9098 38.3472 30.5924 38.3474Z" fill="#DADADA"/>
<path d="M50.1573 109.438C49.8235 109.438 49.4971 109.34 49.2195 109.154L28.899 95.6218C28.7137 95.4985 28.5544 95.3398 28.4304 95.155C28.3063 94.9701 28.2199 94.7626 28.176 94.5443C28.1322 94.326 28.1318 94.1012 28.1748 93.8828C28.2178 93.6643 28.3034 93.4565 28.4267 93.2711C28.5501 93.0858 28.7087 92.9265 28.8936 92.8025C29.0785 92.6784 29.286 92.592 29.5043 92.5482C29.7226 92.5043 29.9473 92.5039 30.1658 92.5469C30.3842 92.5899 30.5921 92.6755 30.7774 92.7989L51.0989 106.331C51.4021 106.533 51.6323 106.827 51.7554 107.17C51.8785 107.513 51.8879 107.886 51.7823 108.235C51.6766 108.583 51.4615 108.888 51.1689 109.105C50.8762 109.322 50.5215 109.439 50.1573 109.438Z" fill="#DADADA"/>
<path d="M74.5436 58.0576C74.1779 58.0582 73.8217 57.9405 73.5284 57.7221C73.235 57.5036 73.0202 57.1962 72.9159 56.8457C72.8116 56.4951 72.8235 56.1202 72.9498 55.777C73.076 55.4337 73.3099 55.1405 73.6165 54.9411L93.0361 42.3009C93.413 42.0555 93.8719 41.9699 94.3119 42.0629C94.752 42.1559 95.137 42.4199 95.3824 42.7969C95.6277 43.1738 95.7133 43.6327 95.6203 44.0727C95.5273 44.5128 95.2633 44.8978 94.8864 45.1432L75.4668 57.7834C75.1921 57.9623 74.8714 58.0576 74.5436 58.0576Z" fill="#DADADA"/>
<path d="M93.1891 82.2482C92.8401 82.2484 92.4997 82.1405 92.2146 81.9392L75.8582 70.4227C75.4936 70.1625 75.2467 69.7687 75.1716 69.3271C75.0964 68.8856 75.199 68.4322 75.457 68.0661C75.715 67.7 76.1074 67.4508 76.5485 67.373C76.9896 67.2953 77.4436 67.3952 77.8112 67.6511L94.1676 79.1685C94.4623 79.376 94.6832 79.672 94.7983 80.0135C94.9134 80.355 94.9166 80.7244 94.8075 81.0679C94.6985 81.4114 94.4828 81.7112 94.1918 81.9238C93.9007 82.1364 93.5495 82.2507 93.1891 82.2501V82.2482Z" fill="#DADADA"/>
<path d="M51.3324 58.4102C51.0046 58.4102 50.6838 58.315 50.4091 58.136L28.3614 43.7889C28.1747 43.6674 28.0139 43.5103 27.8879 43.3266C27.762 43.143 27.6735 42.9363 27.6274 42.7184C27.5814 42.5005 27.5787 42.2757 27.6195 42.0568C27.6603 41.8379 27.7439 41.6292 27.8654 41.4425C27.9869 41.2559 28.1439 41.095 28.3276 40.9691C28.5112 40.8432 28.7179 40.7547 28.9358 40.7086C29.1537 40.6625 29.3785 40.6599 29.5974 40.7007C29.8163 40.7415 30.025 40.825 30.2117 40.9465L52.2595 55.2937C52.566 55.4931 52.7999 55.7863 52.9262 56.1296C53.0525 56.4728 53.0643 56.8477 52.9601 57.1983C52.8558 57.5488 52.6409 57.8563 52.3476 58.0747C52.0542 58.2931 51.6981 58.4108 51.3324 58.4102Z" fill="#DADADA"/>
<path d="M31.0778 83.0009C30.7174 83.0015 30.3662 82.8872 30.0752 82.6746C29.7841 82.462 29.5684 82.1622 29.4594 81.8187C29.3503 81.4752 29.3536 81.1058 29.4686 80.7643C29.5837 80.4228 29.8046 80.1268 30.0993 79.9193L49.1837 66.4818C49.5512 66.2226 50.0067 66.1199 50.4499 66.1965C50.8931 66.2731 51.2877 66.5226 51.547 66.8901C51.8062 67.2577 51.9088 67.7131 51.8323 68.1563C51.7557 68.5995 51.5062 68.9942 51.1386 69.2534L32.0543 82.6909C31.7688 82.893 31.4275 83.0013 31.0778 83.0009Z" fill="#DADADA"/>
<path d="M62.6667 76.7709L48.4988 69.0374V54.8694L62.6667 62.6029V76.7709Z" fill="#EA113F"/>
<path d="M62.6667 76.7709L76.8347 69.0374V54.8694L62.6667 62.6029V76.7709Z" fill="#2A5EBC"/>
<path d="M48.4988 54.8694L62.6667 46.7551L76.8347 54.8694L62.6667 62.6029L48.4988 54.8694Z" fill="#FF812C"/>
<path d="M18.3697 50.82L4.20172 43.0865V28.9185L18.3697 36.652V50.82Z" fill="#EA113F"/>
<path d="M18.3697 50.82L32.5377 43.0865V28.9185L18.3697 36.652V50.82Z" fill="#2A5EBC"/>
<path d="M4.20172 28.9185L18.3697 20.8043L32.5377 28.9185L18.3697 36.6521L4.20172 28.9185Z" fill="#FF812C"/>
<path d="M18.3697 102.24L4.20172 94.5068V80.3388L18.3697 88.0723V102.24Z" fill="#EA113F"/>
<path d="M18.3697 102.24L32.5377 94.5068V80.3388L18.3697 88.0723V102.24Z" fill="#2A5EBC"/>
<path d="M4.20172 80.3388L18.3697 72.2245L32.5377 80.3388L18.3697 88.0723L4.20172 80.3388Z" fill="#FF812C"/>
<path d="M106.964 50.82L92.7958 43.0865V28.9185L106.964 36.652V50.82Z" fill="#EA113F"/>
<path d="M106.964 50.82L121.132 43.0865V28.9185L106.964 36.652V50.82Z" fill="#2A5EBC"/>
<path d="M92.7958 28.9185L106.964 20.8043L121.132 28.9185L106.964 36.6521L92.7958 28.9185Z" fill="#FF812C"/>
<path d="M106.964 102.24L92.7958 94.5068V80.3388L106.964 88.0723V102.24Z" fill="#EA113F"/>
<path d="M106.964 102.24L121.132 94.5068V80.3388L106.964 88.0723V102.24Z" fill="#2A5EBC"/>
<path d="M92.7958 80.3388L106.964 72.2245L121.132 80.3388L106.964 88.0723L92.7958 80.3388Z" fill="#FF812C"/>
<path d="M62.6667 31.9536L48.4988 24.2191V10.0511L62.6667 17.7856V31.9536Z" fill="#EA113F"/>
<path d="M62.6667 31.9536L76.8347 24.2191V10.0511L62.6667 17.7856V31.9536Z" fill="#2A5EBC"/>
<path d="M48.4988 10.0512L62.6667 1.93692L76.8347 10.0512L62.6667 17.7857L48.4988 10.0512Z" fill="#FF812C"/>
<path d="M62.6667 122.306L48.4988 114.572V100.404L62.6667 108.138V122.306Z" fill="#EA113F"/>
<path d="M62.6667 122.306L76.8347 114.572V100.404L62.6667 108.138V122.306Z" fill="#2A5EBC"/>
<path d="M48.4988 100.404L62.6667 92.2893L76.8347 100.404L62.6667 108.138L48.4988 100.404Z" fill="#FF812C"/>
</svg>
