<svg width="122" height="123" viewBox="0 0 122 123" fill="none" xmlns="http://www.w3.org/2000/svg">
<path d="M65.0666 51.3347L61 120.468C60.4882 120.462 59.983 120.351 59.5156 120.143L16.653 102.29C15.9391 102.002 15.3273 101.508 14.8962 100.87C14.4651 100.233 14.2343 99.481 14.2333 98.7113V51.3347H65.0666Z" fill="#B78456"/>
<path d="M107.767 51.3347V98.7113C107.766 99.481 107.535 100.233 107.104 100.87C106.673 101.508 106.061 102.002 105.347 102.29L62.4843 120.143C62.0169 120.351 61.5118 120.462 61 120.468V51.3347H107.767Z" fill="#D09A62"/>
<path d="M14.2333 37.1014L3.16792 48.6405C2.71774 49.0973 2.38577 49.6569 2.2008 50.271C2.01582 50.885 1.98343 51.5349 2.10642 52.1643C2.22942 52.7937 2.50409 53.3836 2.90662 53.8828C3.30915 54.3821 3.82738 54.7756 4.41639 55.0293L43.129 71.3671C43.8368 71.6655 44.618 71.7442 45.3711 71.593C46.1242 71.4418 46.8144 71.0676 47.3522 70.5192L61 57.4347L74.6477 70.5192C75.1855 71.0676 75.8758 71.4418 76.6289 71.593C77.382 71.7442 78.1631 71.6655 78.8709 71.3671L117.584 55.0293C118.173 54.7756 118.691 54.3821 119.093 53.8828C119.496 53.3836 119.771 52.7937 119.894 52.1643C120.017 51.5349 119.984 50.885 119.799 50.271C119.614 49.6569 119.282 49.0973 118.832 48.6405L107.767 37.1014L118.83 25.5622C119.28 25.1054 119.612 24.5458 119.797 23.9317C119.982 23.3177 120.014 22.6678 119.892 22.0384C119.769 21.409 119.494 20.8191 119.091 20.3199C118.689 19.8206 118.171 19.4271 117.582 19.1734L78.8709 2.83561C78.1631 2.53724 77.382 2.45855 76.6289 2.60975C75.8758 2.76095 75.1855 3.13506 74.6477 3.68351L61 16.768L47.3522 3.68351C46.8144 3.13506 46.1242 2.76095 45.3711 2.60975C44.618 2.45855 43.8368 2.53724 43.129 2.83561L4.41639 19.1734C3.82738 19.4271 3.30915 19.8206 2.90662 20.3199C2.50409 20.8191 2.22942 21.409 2.10642 22.0384C1.98343 22.6678 2.01582 23.3177 2.2008 23.9317C2.38577 24.5458 2.71774 25.1054 3.16792 25.5622L14.2333 37.1014Z" fill="#E5AE7C"/>
<path d="M107.769 37.1014L61 16.768L14.2313 37.1014L61 57.4347L107.769 37.1014Z" fill="#A0724B"/>
<path d="M50.8333 45.2347C50.2941 45.2346 49.777 45.0203 49.3958 44.6389L43.2958 38.5389C42.9146 38.1576 42.7004 37.6405 42.7004 37.1013C42.7004 36.5622 42.9146 36.0451 43.2958 35.6638L49.3958 29.5638C49.7793 29.1934 50.2929 28.9884 50.826 28.9931C51.3592 28.9977 51.8691 29.2115 52.2461 29.5885C52.6231 29.9655 52.837 30.4755 52.8416 31.0087C52.8462 31.5418 52.6413 32.0554 52.2709 32.4389L47.6085 37.1013L52.2709 41.7638C52.5552 42.0481 52.7488 42.4104 52.8272 42.8048C52.9056 43.1991 52.8653 43.6079 52.7115 43.9794C52.5576 44.3509 52.2971 44.6684 51.9628 44.8919C51.6285 45.1153 51.2354 45.2346 50.8333 45.2347Z" fill="white"/>
<path d="M71.1667 45.2347C70.7646 45.2346 70.3715 45.1153 70.0372 44.8919C69.7029 44.6684 69.4424 44.3509 69.2885 43.9794C69.1346 43.6079 69.0944 43.1991 69.1728 42.8048C69.2512 42.4104 69.4448 42.0481 69.7291 41.7638L74.3915 37.1013L69.7291 32.4389C69.3587 32.0554 69.1538 31.5418 69.1584 31.0087C69.163 30.4755 69.3769 29.9655 69.7539 29.5885C70.1309 29.2115 70.6408 28.9977 71.174 28.9931C71.7071 28.9884 72.2207 29.1934 72.6042 29.5638L78.7042 35.6638C79.0854 36.0451 79.2996 36.5622 79.2996 37.1013C79.2996 37.6405 79.0854 38.1576 78.7042 38.5389L72.6042 44.6389C72.223 45.0203 71.7059 45.2346 71.1667 45.2347Z" fill="white"/>
<path d="M58.9667 45.2347C58.6447 45.2344 58.3273 45.1577 58.0407 45.0108C57.7542 44.8639 57.5066 44.6511 57.3184 44.3898C57.1302 44.1285 57.0067 43.8263 56.9581 43.508C56.9096 43.1896 56.9373 42.8643 57.0391 42.5588L61.1057 30.3588C61.2761 29.8465 61.6431 29.4229 62.1258 29.1811C62.6086 28.9393 63.1676 28.8993 63.6799 29.0697C64.1922 29.2401 64.6159 29.607 64.8576 30.0898C65.0994 30.5725 65.1395 31.1316 64.9691 31.6439L60.9024 43.8439C60.7672 44.2499 60.5073 44.6029 60.1597 44.8526C59.8121 45.1024 59.3946 45.2361 58.9667 45.2347Z" fill="white"/>
</svg>
