<svg width="122" height="123" viewBox="0 0 122 123" fill="none" xmlns="http://www.w3.org/2000/svg">
<g clip-path="url(#clip0_10_231)">
<path d="M78.8711 29.0951V43.3919H71.7227V29.0951L75.2969 22.7332L75.726 21.9466L78.8711 29.0951Z" fill="#466289"/>
<path d="M78.8711 43.3919H75.2969V22.7332L75.726 21.9466L78.8711 29.0951V43.3919Z" fill="#354A67"/>
<path d="M52.3502 78.6334L46.5831 109.849L28.832 122.501H0L39.5547 57.6888L52.3502 78.6334Z" fill="#466289"/>
<path d="M122 122.501H28.832L52.3502 78.6334L56.0678 71.7707L69.0774 65.8379H81.5164L94.3827 71.5566L122 122.501Z" fill="#6B81A1"/>
<path d="M122 122.501H75.2969V65.8379H81.5164L94.3826 71.5566L122 122.501Z" fill="#466289"/>
<path d="M94.3826 71.5566L81.5164 80.1348L75.2969 73.4871L69.0773 80.1348L56.0677 71.7707L59.4986 65.4088L75.2969 36.2435L91.0234 65.1947L94.3826 71.5566Z" fill="#D8D8FC"/>
<path d="M57.4258 36.2435H21.6836L35.9805 21.9466L21.6836 7.64977H57.4258V36.2435Z" fill="#EA113F"/>
<path d="M94.3826 71.5566L81.5164 80.1348L75.2969 73.4871V36.2435L91.0234 65.1947L94.3826 71.5566Z" fill="#A3A3D1"/>
<path d="M50.2773 0.501343H78.8711V29.0951H50.2773V0.501343Z" fill="#FF4B71"/>
<path d="M75.2969 0.501343H78.8711V29.0951H75.2969V0.501343Z" fill="#DB2E44"/>
</g>
<defs>
<clipPath id="clip0_10_231">
<rect width="122" height="122" fill="white" transform="translate(0 0.501343)"/>
</clipPath>
</defs>
</svg>
