<svg width="689" height="76" viewBox="0 0 689 76" fill="none" xmlns="http://www.w3.org/2000/svg">
<path d="M10.9817 61.4118V29.3541L5.86403 24.2367C3.70022 22.0726 0 23.6052 0 26.6657V72.5648C0 74.4621 1.53791 76 3.43517 76H49.3345C52.3948 76 53.9271 72.3 51.7633 70.136L46.4743 64.8469H14.4168C12.5196 64.8469 10.9817 63.309 10.9817 61.4118Z" fill="#2A5EBC"/>
<mask id="mask0_3_102" style="mask-type:luminance" maskUnits="userSpaceOnUse" x="8" y="26" width="42" height="42">
<path d="M8.44809 26.7904H49.039V67.3804H8.44809V26.7904Z" fill="white"/>
</mask>
<g mask="url(#mask0_3_102)">
<g opacity="0.199997">
<path d="M14.4528 64.8224C12.5555 64.8224 11.0176 63.2845 11.0176 61.3872V29.3295L8.44849 26.7905V61.3331C8.44849 64.6729 11.1557 67.3806 14.4957 67.3806H49.0392L46.5102 64.8224H14.4528Z" fill="#333333"/>
</g>
</g>
<path d="M23.4369 57.0619C20.6792 57.0619 18.4438 54.8265 18.4438 52.0688C18.4438 49.8245 19.925 47.9264 21.9632 47.2974V18.2011L16.8456 13.0835C14.6818 10.9194 10.9818 12.4522 10.9818 15.5126V29.3542V61.4116C10.9818 63.3089 12.5197 64.8468 14.4169 64.8468H46.4744H60.316C63.3764 64.8468 64.9089 61.1468 62.7449 58.9828L57.4558 53.6937H28.1539C27.4791 55.6524 25.6248 57.0619 23.4369 57.0619Z" fill="#EA113F"/>
<path d="M49.6742 29.9659C48.7919 29.9659 47.9643 29.735 47.2447 29.3333L27.7238 49.493L48.3563 43.5485C48.3556 43.5158 48.3515 43.4845 48.3515 43.4518C48.3515 40.6941 50.5869 38.4588 53.3446 38.4588C55.656 38.4588 57.5949 40.0315 58.1634 42.1637H68.0608L53.749 27.8521C52.8448 29.1295 51.3584 29.9659 49.6742 29.9659Z" fill="#FF812C"/>
<path d="M23.4369 47.0759C23.4884 47.0759 23.5384 47.0819 23.5896 47.0836L29.7567 26.5568C28.3345 25.6771 27.3837 24.1078 27.3837 22.3123C27.3837 20.0012 28.9564 18.062 31.0886 17.4933V5.19172L27.8272 1.93031C25.6632 -0.233715 21.9632 1.29904 21.9632 4.35918V18.201V47.2974C22.429 47.1537 22.9237 47.0759 23.4369 47.0759Z" fill="#FF812C"/>
<path d="M37.3698 22.3125C37.3698 25.07 35.1343 27.3056 32.3768 27.3056C32.3252 27.3056 32.2749 27.2993 32.2238 27.2978L26.1931 47.3708L45.3968 27.5388C44.9455 26.7881 44.6811 25.9124 44.6811 24.9729C44.6811 23.2885 45.5175 21.8024 46.7951 20.8981L33.6646 7.7679V17.4932C35.7969 18.062 37.3698 20.0012 37.3698 22.3125Z" fill="#FF812C"/>
<path d="M53.3445 48.4447C51.5291 48.4447 49.9446 47.4726 49.0706 46.0236L28.4248 51.972C28.4254 52.0047 28.4297 52.0363 28.4297 52.0689C28.4297 52.6385 28.3296 53.1837 28.1539 53.6936H57.4558H71.2975C74.3578 53.6936 75.8906 49.9936 73.7265 47.8296L70.6368 44.7398H58.1636C57.5946 46.872 55.6559 48.4447 53.3445 48.4447Z" fill="#FF812C"/>
<mask id="mask1_3_102" style="mask-type:luminance" maskUnits="userSpaceOnUse" x="15" y="15" width="45" height="45">
<path d="M15.9121 15.6281H59.9315V59.5558H15.9121V15.6281Z" fill="white"/>
</mask>
<g mask="url(#mask1_3_102)">
<g opacity="0.199997">
<path d="M30.7751 53.654H28.1512C27.4767 55.6127 25.622 57.0221 23.4339 57.0221C20.6764 57.0221 18.4411 54.7866 18.4411 52.0291C18.4411 49.7845 19.9223 47.8864 21.9606 47.2577V18.1613L19.4272 15.6279V45.676C17.3175 47.0085 15.9125 49.3543 15.9125 52.0338C15.9125 56.1881 19.2798 59.5556 23.4339 59.5556C26.075 59.5556 28.3943 58.1915 29.7361 56.1327H59.9318L57.4666 53.6673H30.7727C30.7736 53.663 30.774 53.6583 30.7751 53.654Z" fill="#333333"/>
</g>
</g>
<path d="M142.54 70.0587C140.64 66.8587 138.54 63.5587 136.24 59.8587C133.94 56.2587 131.54 52.5587 129.04 48.8587C126.54 45.1587 124.04 41.6587 121.44 38.1587C118.84 34.6587 116.44 31.5587 114.04 28.8587V70.0587H103.74V12.5587H112.34C114.54 14.8587 116.94 17.6587 119.54 20.8587C122.14 24.0587 124.64 27.3587 127.24 30.7587C129.84 34.1587 132.34 37.6587 134.74 41.0587C137.14 44.5587 139.34 47.7587 141.14 50.7587V12.5587H151.54V70.0587H142.54Z" fill="#183059"/>
<path d="M162.34 48.5587C162.34 44.7587 162.94 41.3587 164.04 38.5587C165.14 35.6587 166.64 33.2587 168.54 31.3587C170.44 29.4587 172.54 28.0587 175.04 27.0587C177.44 26.0587 179.94 25.5587 182.54 25.5587C188.54 25.5587 193.24 27.4587 196.54 31.1587C199.94 34.8587 201.54 40.3587 201.54 47.7587C201.54 48.3587 201.54 48.9587 201.54 49.6587C201.54 50.3587 201.44 50.9587 201.44 51.5587H172.74C173.04 55.0587 174.24 57.7587 176.44 59.6587C178.64 61.5587 181.84 62.5587 185.94 62.5587C188.34 62.5587 190.64 62.3587 192.64 61.8587C194.64 61.4587 196.24 60.9587 197.44 60.4587L198.74 68.6587C198.14 68.9587 197.44 69.2587 196.44 69.5587C195.44 69.8587 194.34 70.1587 193.14 70.3587C191.94 70.5587 190.54 70.8587 189.14 70.9587C187.74 71.0587 186.24 71.1587 184.74 71.1587C180.94 71.1587 177.54 70.5587 174.74 69.4587C171.94 68.3587 169.54 66.7587 167.74 64.7587C165.94 62.7587 164.54 60.3587 163.64 57.6587C162.84 54.8587 162.34 51.8587 162.34 48.5587ZM191.54 44.0587C191.54 42.6587 191.34 41.3587 190.94 40.1587C190.54 38.9587 189.94 37.8587 189.24 36.9587C188.54 36.0587 187.54 35.3587 186.54 34.7587C185.44 34.2587 184.14 33.9587 182.64 33.9587C181.04 33.9587 179.74 34.2587 178.54 34.8587C177.34 35.4587 176.34 36.1587 175.54 37.1587C174.74 38.0587 174.14 39.1587 173.64 40.3587C173.24 41.5587 172.94 42.8587 172.74 44.0587H191.54Z" fill="#183059"/>
<path d="M227.94 39.9587L237.14 26.6587H247.74L233.14 47.4587C236.24 51.2587 239.14 55.1587 241.94 59.0587C244.74 62.9587 247.04 66.6587 248.84 70.0587H237.84C237.34 69.0587 236.64 67.9587 235.84 66.6587C235.04 65.4587 234.14 64.1587 233.24 62.8587C232.34 61.5587 231.34 60.2587 230.34 58.9587C229.34 57.6587 228.34 56.4587 227.44 55.2587C225.44 57.5587 223.54 60.0587 221.74 62.7587C219.94 65.4587 218.34 67.8587 217.14 70.0587H206.84C207.64 68.3587 208.64 66.6587 209.84 64.7587C211.04 62.9587 212.34 61.0587 213.74 59.0587C215.14 57.1587 216.54 55.2587 217.94 53.2587C219.44 51.3587 220.84 49.4587 222.24 47.7587L207.44 26.5587H218.54L227.94 39.9587Z" fill="#183059"/>
<path d="M255.74 15.2587L265.84 13.5587V26.6587H281.34V35.0587H265.84V52.7587C265.84 56.2587 266.44 58.7587 267.54 60.2587C268.64 61.7587 270.54 62.4587 273.24 62.4587C275.04 62.4587 276.74 62.2587 278.14 61.8587C279.54 61.4587 280.64 61.1587 281.54 60.7587L283.24 68.7587C282.04 69.2587 280.54 69.7587 278.64 70.2587C276.74 70.7587 274.54 71.0587 271.94 71.0587C268.84 71.0587 266.24 70.6587 264.14 69.8587C262.04 69.0587 260.44 67.8587 259.14 66.2587C257.94 64.6587 257.04 62.7587 256.54 60.5587C256.04 58.3587 255.84 55.7587 255.84 52.8587V15.2587H255.74Z" fill="#183059"/>
<path d="M330.44 70.0587C328.54 66.8587 326.44 63.5587 324.14 59.8587C321.84 56.2587 319.44 52.5587 316.94 48.8587C314.44 45.1587 311.94 41.6587 309.34 38.1587C306.74 34.6587 304.34 31.5587 301.94 28.8587V70.0587H291.64V12.5587H300.24C302.44 14.8587 304.84 17.6587 307.44 20.8587C310.04 24.0587 312.54 27.3587 315.14 30.7587C317.74 34.1587 320.24 37.6587 322.64 41.0587C325.04 44.5587 327.24 47.7587 329.04 50.7587V12.5587H339.44V70.0587H330.44Z" fill="#183059"/>
<path d="M350.24 48.5587C350.24 44.7587 350.84 41.3587 351.94 38.5587C353.04 35.6587 354.54 33.2587 356.44 31.3587C358.34 29.4587 360.44 28.0587 362.94 27.0587C365.34 26.0587 367.84 25.5587 370.44 25.5587C376.44 25.5587 381.14 27.4587 384.44 31.1587C387.84 34.8587 389.44 40.3587 389.44 47.7587C389.44 48.3587 389.44 48.9587 389.44 49.6587C389.44 50.3587 389.34 50.9587 389.34 51.5587H360.64C360.94 55.0587 362.14 57.7587 364.34 59.6587C366.54 61.5587 369.74 62.5587 373.84 62.5587C376.24 62.5587 378.54 62.3587 380.54 61.8587C382.54 61.4587 384.14 60.9587 385.34 60.4587L386.64 68.6587C386.04 68.9587 385.34 69.2587 384.34 69.5587C383.34 69.8587 382.24 70.1587 381.04 70.3587C379.84 70.5587 378.44 70.8587 377.04 70.9587C375.64 71.0587 374.14 71.1587 372.64 71.1587C368.84 71.1587 365.44 70.5587 362.64 69.4587C359.84 68.3587 357.44 66.7587 355.64 64.7587C353.84 62.7587 352.44 60.3587 351.54 57.6587C350.64 54.8587 350.24 51.8587 350.24 48.5587ZM379.44 44.0587C379.44 42.6587 379.24 41.3587 378.84 40.1587C378.44 38.9587 377.84 37.8587 377.14 36.9587C376.44 36.0587 375.44 35.3587 374.44 34.7587C373.34 34.2587 372.04 33.9587 370.54 33.9587C368.94 33.9587 367.64 34.2587 366.44 34.8587C365.24 35.4587 364.24 36.1587 363.44 37.1587C362.64 38.0587 362.04 39.1587 361.54 40.3587C361.14 41.5587 360.84 42.8587 360.64 44.0587H379.44Z" fill="#183059"/>
<path d="M399.64 15.2587L409.74 13.5587V26.6587H425.24V35.0587H409.74V52.7587C409.74 56.2587 410.34 58.7587 411.44 60.2587C412.54 61.7587 414.44 62.4587 417.14 62.4587C418.94 62.4587 420.64 62.2587 422.04 61.8587C423.44 61.4587 424.54 61.1587 425.44 60.7587L427.14 68.7587C425.94 69.2587 424.44 69.7587 422.54 70.2587C420.64 70.7587 418.44 71.0587 415.84 71.0587C412.74 71.0587 410.14 70.6587 408.04 69.8587C405.94 69.0587 404.34 67.8587 403.04 66.2587C401.84 64.6587 400.94 62.7587 400.44 60.5587C399.94 58.3587 399.74 55.7587 399.74 52.8587V15.2587H399.64Z" fill="#183059"/>
<path d="M446.94 64.5587C446.94 66.4587 446.24 68.0587 444.94 69.2587C443.64 70.4587 442.04 71.0587 440.24 71.0587C438.34 71.0587 436.74 70.4587 435.54 69.2587C434.24 68.0587 433.64 66.4587 433.64 64.5587C433.64 62.6587 434.24 61.0587 435.54 59.7587C436.84 58.5587 438.44 57.8587 440.24 57.8587C442.04 57.8587 443.64 58.4587 444.94 59.7587C446.34 61.0587 446.94 62.6587 446.94 64.5587Z" fill="#183059"/>
<path d="M492.24 19.0587C493.14 22.0587 494.04 25.1587 495.04 28.3587C496.04 31.5587 497.04 34.8587 498.14 38.0587C499.24 41.2587 500.34 44.4587 501.34 47.5587C502.44 50.6587 503.44 53.6587 504.44 56.3587C505.24 53.3587 506.04 50.1587 506.84 46.6587C507.64 43.1587 508.44 39.4587 509.14 35.6587C509.94 31.8587 510.64 28.0587 511.44 24.0587C512.14 20.1587 512.94 16.2587 513.54 12.4587H524.34C522.44 22.8587 520.24 32.8587 517.84 42.4587C515.44 52.0587 512.84 61.2587 509.84 69.9587H499.74C495.44 58.7587 491.24 46.5587 487.24 33.3587C485.14 40.0587 483.14 46.4587 481.04 52.4587C478.94 58.4587 476.84 64.3587 474.74 69.9587H464.74C461.74 61.2587 459.04 52.0587 456.74 42.4587C454.34 32.8587 452.24 22.8587 450.34 12.4587H461.54C462.24 16.2587 462.94 20.0587 463.64 23.9587C464.34 27.8587 465.14 31.7587 465.94 35.5587C466.74 39.3587 467.54 43.0587 468.44 46.5587C469.24 50.0587 470.14 53.3587 470.94 56.3587C472.04 53.5587 473.04 50.5587 474.14 47.4587C475.24 44.3587 476.24 41.1587 477.34 37.9587C478.44 34.7587 479.44 31.4587 480.34 28.2587C481.34 25.0587 482.24 21.9587 483.04 18.9587H492.24V19.0587Z" fill="#183059"/>
<path d="M570.54 48.3587C570.54 51.7587 570.04 54.9587 569.04 57.7587C568.04 60.5587 566.64 62.9587 564.84 64.9587C563.04 66.9587 560.84 68.4587 558.24 69.5587C555.64 70.6587 552.84 71.2587 549.74 71.2587C546.64 71.2587 543.84 70.6587 541.24 69.5587C538.64 68.4587 536.54 66.8587 534.64 64.9587C532.74 63.0587 531.34 60.5587 530.34 57.7587C529.34 54.9587 528.84 51.8587 528.84 48.3587C528.84 44.8587 529.34 41.8587 530.34 39.0587C531.34 36.2587 532.84 33.8587 534.64 31.8587C536.44 29.8587 538.74 28.3587 541.24 27.2587C543.84 26.1587 546.64 25.6587 549.64 25.6587C552.64 25.6587 555.54 26.1587 558.04 27.2587C560.64 28.3587 562.84 29.8587 564.64 31.8587C566.44 33.8587 567.94 36.2587 568.94 39.0587C570.04 41.7587 570.54 44.9587 570.54 48.3587ZM560.24 48.3587C560.24 44.0587 559.34 40.6587 557.44 38.1587C555.54 35.6587 552.94 34.3587 549.64 34.3587C546.34 34.3587 543.74 35.6587 541.84 38.1587C539.94 40.6587 539.04 44.0587 539.04 48.3587C539.04 52.7587 539.94 56.1587 541.84 58.7587C543.74 61.2587 546.34 62.5587 549.64 62.5587C552.94 62.5587 555.54 61.2587 557.44 58.7587C559.34 56.1587 560.24 52.7587 560.24 48.3587Z" fill="#183059"/>
<path d="M605.74 35.7587C604.94 35.4587 603.74 35.1587 602.24 34.8587C600.74 34.5587 599.04 34.3587 597.14 34.3587C596.04 34.3587 594.84 34.4587 593.64 34.6587C592.44 34.8587 591.54 35.0587 591.04 35.2587V70.0587H580.94V28.7587C582.84 28.0587 585.34 27.3587 588.24 26.7587C591.14 26.1587 594.34 25.7587 597.94 25.7587C598.64 25.7587 599.34 25.7587 600.24 25.8587C601.14 25.9587 602.04 26.0587 602.94 26.1587C603.84 26.2587 604.64 26.4587 605.54 26.6587C606.34 26.8587 607.04 27.0587 607.54 27.1587L605.74 35.7587Z" fill="#183059"/>
<path d="M624.54 43.6587C625.84 42.3587 627.14 40.8587 628.64 39.3587C630.04 37.8587 631.54 36.3587 632.84 34.7587C634.24 33.2587 635.54 31.7587 636.84 30.3587C638.04 28.9587 639.14 27.7587 640.04 26.6587H651.94C649.14 29.7587 646.24 32.9587 643.14 36.2587C640.04 39.5587 636.94 42.8587 633.84 45.9587C635.54 47.3587 637.24 49.0587 639.04 50.9587C640.84 52.9587 642.64 55.0587 644.34 57.2587C646.04 59.4587 647.64 61.6587 649.14 63.8587C650.64 66.0587 651.84 68.1587 652.84 69.9587H641.24C640.24 68.2587 639.04 66.4587 637.74 64.5587C636.44 62.6587 635.04 60.8587 633.54 59.0587C632.04 57.2587 630.54 55.6587 628.94 54.0587C627.34 52.4587 625.84 51.1587 624.34 50.0587V69.9587H614.24V7.3587L624.34 5.65869V43.6587H624.54Z" fill="#183059"/>
<path d="M671.24 62.8587C673.94 62.8587 675.84 62.5587 677.04 61.8587C678.24 61.2587 678.84 60.1587 678.84 58.5587C678.84 57.1587 678.14 55.9587 676.84 54.9587C675.54 54.0587 673.34 52.9587 670.44 51.8587C668.64 51.1587 666.94 50.4587 665.44 49.7587C663.94 49.0587 662.64 48.1587 661.44 47.1587C660.34 46.1587 659.44 44.9587 658.84 43.5587C658.24 42.1587 657.84 40.4587 657.84 38.3587C657.84 34.3587 659.34 31.2587 662.24 28.9587C665.14 26.6587 669.14 25.5587 674.24 25.5587C676.84 25.5587 679.24 25.7587 681.54 26.2587C683.84 26.7587 685.64 27.1587 686.74 27.6587L684.94 35.7587C683.84 35.2587 682.44 34.7587 680.74 34.3587C679.04 33.9587 677.04 33.7587 674.74 33.7587C672.64 33.7587 671.04 34.0587 669.74 34.7587C668.44 35.4587 667.84 36.5587 667.84 37.9587C667.84 38.6587 667.94 39.3587 668.24 39.8587C668.44 40.4587 668.94 40.9587 669.54 41.3587C670.14 41.8587 670.94 42.2587 671.94 42.7587C672.94 43.2587 674.14 43.7587 675.64 44.2587C678.04 45.1587 680.04 46.0587 681.74 46.8587C683.44 47.7587 684.74 48.6587 685.84 49.7587C686.94 50.8587 687.74 52.0587 688.24 53.4587C688.74 54.8587 688.94 56.4587 688.94 58.4587C688.94 62.5587 687.44 65.7587 684.34 67.8587C681.24 69.9587 676.84 71.0587 671.14 71.0587C667.34 71.0587 664.24 70.7587 661.94 70.0587C659.64 69.4587 657.94 68.9587 657.04 68.5587L658.74 60.1587C660.24 60.7587 662.04 61.3587 664.14 61.8587C666.24 62.5587 668.64 62.8587 671.24 62.8587Z" fill="#183059"/>
</svg>
