<svg width="124" height="124" viewBox="0 0 124 124" fill="none" xmlns="http://www.w3.org/2000/svg">
<g clip-path="url(#clip0_3_382)">
<path d="M62 124.001C96.2417 124.001 124 96.243 124 62.0013C124 27.7597 96.2417 0.00134277 62 0.00134277C27.7583 0.00134277 0 27.7597 0 62.0013C0 96.243 27.7583 124.001 62 124.001Z" fill="#2E3148"/>
<path d="M62 97.9767C81.8686 97.9767 97.9754 81.87 97.9754 62.0013C97.9754 42.1327 81.8686 26.026 62 26.026C42.1313 26.026 26.0246 42.1327 26.0246 62.0013C26.0246 81.87 42.1313 97.9767 62 97.9767Z" fill="#1B1E36"/>
<path d="M62.1275 7.91107C55.4349 7.91107 50.0082 32.1853 50.0082 62.1293C50.0082 92.0733 55.4349 116.348 62.1275 116.348C68.82 116.348 74.2467 92.0733 74.2467 62.1293C74.2467 32.1853 68.82 7.91107 62.1275 7.91107ZM62.9642 113.288C62.1989 114.309 61.4336 113.543 61.4336 113.543C58.3514 109.971 56.8104 103.337 56.8104 103.337C51.4193 85.9874 52.7025 48.7363 52.7025 48.7363C55.2361 19.1628 59.8449 12.1767 61.4132 10.6257C61.5734 10.4674 61.7843 10.3707 62.0087 10.3525C62.2332 10.3344 62.4568 10.396 62.6403 10.5265C64.916 12.139 66.8246 18.8826 66.8246 18.8826C72.4606 39.8044 71.9503 59.4504 71.9503 59.4504C72.4606 76.5451 69.126 95.6807 69.126 95.6807C66.5592 110.223 62.9642 113.288 62.9642 113.288Z" fill="#6F7390"/>
<path d="M109.156 35.1474C105.824 29.3402 82.0696 36.7138 56.0837 51.6146C30.0978 66.5154 11.7676 83.3035 15.0972 89.1082C18.4269 94.9129 42.1833 87.5419 68.1692 72.641C94.1552 57.7402 112.485 40.9521 109.156 35.1474ZM18.1714 88.3116C16.8957 88.1509 17.1839 87.1024 17.1839 87.1024C18.7488 82.6528 23.7286 78.0142 23.7286 78.0142C36.1004 64.7035 69.0526 47.2796 69.0526 47.2796C95.9626 34.7595 104.321 35.2878 106.442 35.8716C106.659 35.9323 106.848 36.0681 106.975 36.255C107.103 36.4418 107.159 36.6676 107.136 36.8923C106.881 39.6699 101.969 44.6795 101.969 44.6795C86.6368 59.9856 69.3408 69.3213 69.3408 69.3213C54.7668 78.2741 36.5091 84.9002 36.5091 84.9002C22.6166 89.9063 18.1719 88.3116 18.1719 88.3116H18.1714Z" fill="#6F7390"/>
<path d="M109.038 89.3017C112.396 83.5099 94.112 66.6449 68.2174 51.632C42.3227 36.619 18.5717 29.1542 15.2168 34.9559C11.8619 40.7577 30.1429 57.6127 56.0525 72.6257C81.962 87.6386 105.683 95.1039 109.038 89.3017ZM17.4419 37.1939C16.9459 36.0179 17.9929 35.7347 17.9929 35.7347C22.6285 34.8592 29.14 36.8541 29.14 36.8541C46.8547 40.8881 78.4424 60.6745 78.4424 60.6745C102.763 77.6928 106.493 85.1888 107.052 87.3167C107.109 87.5349 107.086 87.7662 106.989 87.9698C106.892 88.1734 106.726 88.3361 106.521 88.4292C103.985 89.5903 97.1927 87.8603 97.1927 87.8603C76.258 82.2471 59.5155 71.9625 59.5155 71.9625C44.4724 63.8489 29.5973 51.3646 29.5973 51.3646C18.2945 41.8479 17.4453 37.2068 17.4453 37.2068L17.4419 37.1939Z" fill="#6F7390"/>
<path d="M62 68.3799C65.5228 68.3799 68.3785 65.5241 68.3785 62.0014C68.3785 58.4786 65.5228 55.6228 62 55.6228C58.4772 55.6228 55.6214 58.4786 55.6214 62.0014C55.6214 65.5241 58.4772 68.3799 62 68.3799Z" fill="#B7B9C8"/>
<path d="M88.1521 41.3345C90.1954 41.3345 91.8518 39.621 91.8518 37.5074C91.8518 35.3937 90.1954 33.6802 88.1521 33.6802C86.1088 33.6802 84.4525 35.3937 84.4525 37.5074C84.4525 39.621 86.1088 41.3345 88.1521 41.3345Z" fill="#B7B9C8"/>
<path d="M27.4278 54.3471C29.4711 54.3471 31.1275 52.6336 31.1275 50.5199C31.1275 48.4063 29.4711 46.6928 27.4278 46.6928C25.3845 46.6928 23.7281 48.4063 23.7281 50.5199C23.7281 52.6336 25.3845 54.3471 27.4278 54.3471Z" fill="#B7B9C8"/>
<path d="M54.4732 101.293C56.5165 101.293 58.1729 99.58 58.1729 97.4664C58.1729 95.3527 56.5165 93.6392 54.4732 93.6392C52.4299 93.6392 50.7735 95.3527 50.7735 97.4664C50.7735 99.58 52.4299 101.293 54.4732 101.293Z" fill="#B7B9C8"/>
</g>
<defs>
<clipPath id="clip0_3_382">
<rect width="124" height="124" fill="white" transform="translate(0 0.00134277)"/>
</clipPath>
</defs>
</svg>
