<svg width="111" height="124" viewBox="0 0 111 124" fill="none" xmlns="http://www.w3.org/2000/svg">
<path d="M82.7652 38.8987C82.5728 38.5164 82.378 38.1341 82.1808 37.7494C82.1592 37.7058 82.1376 37.6623 82.1135 37.6187C79.62 32.7382 76.9364 27.6738 75.3109 22.4933C74.9839 21.4528 74.6954 20.4075 74.4645 19.3574C73.9139 16.853 73.4522 14.339 72.3148 11.975C71.6391 10.5667 69.9968 9.56253 68.6959 8.64305C64.774 5.86526 60.4073 3.44558 55.9708 1.38885C53.1599 0.0846433 50.9236 -0.416231 47.8553 0.391943C41.9569 1.9478 36.5273 5.51199 31.7326 9.29637C31.7326 9.29637 31.7326 9.29637 31.7302 9.29637C30.0181 10.649 28.383 12.0258 26.8392 13.3518C21.0586 18.3169 14.3883 24.5065 12.0967 31.5889C11.7119 32.7818 11.5893 34.0037 11.7817 35.2378C11.8562 35.7265 12.1784 36 12.568 36.0992L12.0318 37.2848C11.1926 37.0598 10.0359 37.6381 10.2283 38.6737C10.7044 41.2289 17.9687 40.9603 19.8491 41.0692C27.3923 41.5072 34.9739 41.4854 42.5244 41.4588C55.5212 41.4128 68.5733 41.2966 81.5436 40.6433C82.58 40.5901 83.2028 39.7698 82.7603 38.8963L82.7652 38.8987Z" fill="#F7619B"/>
<path d="M66.7722 60.3734C63.3818 60.3734 60.1837 61.1985 57.3607 62.6527C53.5951 57.431 47.4874 54.0338 40.5887 54.0338C32.6054 54.0338 25.6826 58.5804 22.2248 65.2369C20.3877 64.482 18.3823 64.0586 16.2759 64.0586C7.58567 64.0586 0.542633 71.1458 0.542633 79.8905C0.542633 88.6353 7.39812 95.5144 15.9224 95.7056C15.0712 97.6534 14.5926 99.7997 14.5926 102.064C14.5926 110.809 21.6357 117.896 30.3259 117.896C33.2066 117.896 35.8997 117.103 38.2225 115.743C40.8916 120.662 46.0783 124.001 52.0417 124.001C60.7319 124.001 67.775 116.914 67.775 108.169C67.775 106.004 67.3397 103.94 66.5582 102.057C66.6304 102.057 66.7025 102.062 66.7746 102.062C78.2157 102.062 87.4878 92.7294 87.4878 81.2189C87.4878 69.7085 78.2133 60.3758 66.7746 60.3758L66.7722 60.3734Z" fill="#F7619B"/>
<path d="M52.4409 28.2328C45.8523 26.8899 39.8048 25.5832 34.2814 28.3296C25.4854 32.7019 15.5136 37.609 12.7171 49.3493C10.2139 59.8604 13.8881 71.1071 22.4292 73.9284C26.3294 75.2157 30.511 74.7899 34.4834 74.1317C36.4696 73.8026 38.4438 73.338 40.4107 72.8662C42.154 72.45 44.109 71.5644 45.8451 72.0895C52.2557 74.0301 58.7601 76.6893 65.4689 75.9077C72.2427 75.1189 77.5231 69.2923 78.7399 60.6444C81.7576 39.1818 68.0034 31.4074 52.4409 28.2352V28.2328Z" fill="#EFAA8B"/>
<path d="M96.6469 9.12216C92.737 9.36654 88.9979 10.6949 85.088 10.8716C81.2214 11.0458 77.4967 8.57047 74.1207 7.00009C66.6232 3.51333 60.6309 2.45352 52.7198 0.254025C52.1668 0.0991656 49.9113 -0.166999 49.6492 0.195953C49.5722 0.229828 49.4953 0.273383 49.4231 0.326616C45.0107 3.49398 47.0041 8.77614 49.6876 12.4153C53.0228 16.9377 57.2765 20.5721 62.4969 22.6675C75.1931 27.761 89.6808 21.3294 97.5991 10.9514C98.1185 10.2691 97.5149 9.0665 96.6469 9.12216Z" fill="#DB3A7C"/>
<path d="M24.0499 47.2539C25.3604 47.8515 27.3923 46.7482 28.7076 46.4796C30.5832 46.0997 32.591 46.1118 34.4497 46.5715C39.0593 47.716 41.1273 40.411 36.6355 39.6174C33.1946 39.01 29.8426 39.5956 26.6709 41.0571C24.8651 41.8894 20.5392 45.6496 24.0499 47.2515V47.2539Z" fill="white"/>
<path d="M67.496 48.8896C66.1446 49.388 64.2017 48.1322 62.9081 47.7668C61.0661 47.2466 59.0631 47.1087 57.1755 47.4281C52.4938 48.2217 50.9741 40.7836 55.5115 40.3312C58.9862 39.9827 62.2877 40.8199 65.3415 42.5161C67.0824 43.4816 71.1149 47.5563 67.496 48.8896Z" fill="white"/>
<path d="M16.4129 43.3848C21.1596 40.2731 24.716 39.1117 30.3042 37.9865C35.6809 36.9049 40.7666 36.7525 46.7781 37.1445C56.8581 37.8026 67.3614 40.4256 75.3446 46.6296C77.9007 48.6162 81.8971 47.3483 83.5106 44.8004C85.3621 41.875 84.2392 38.5624 81.6927 36.5831C72.0744 29.1063 59.1112 26.1253 47.2205 25.2493C35.0076 24.3492 21.2846 26.0333 10.8271 32.8907C8.13152 34.6571 6.78014 37.9043 8.40324 40.9482C9.82916 43.622 13.7054 45.1609 16.4105 43.3873L16.4129 43.3848Z" fill="#DB3A7C"/>
<path d="M110.108 10.603C110.002 5.39825 105.924 0.926678 100.653 0.750041C95.1849 0.566145 91.8016 6.65164 92.7827 11.5684C93.6219 15.7763 97.8732 18.4742 101.874 18.8444C106.763 19.2945 109.85 15.469 110.122 10.8764C110.127 10.7796 110.122 10.6877 110.11 10.603H110.108Z" fill="#F7619B"/>
<path d="M31.3118 59.7927C33.1683 59.7927 34.6734 58.0605 34.6734 55.9236C34.6734 53.7868 33.1683 52.0546 31.3118 52.0546C29.4552 52.0546 27.9501 53.7868 27.9501 55.9236C27.9501 58.0605 29.4552 59.7927 31.3118 59.7927Z" fill="#3D4C5E"/>
<path d="M30.8789 55.1324C31.2242 55.1324 31.5041 54.8107 31.5041 54.4138C31.5041 54.0169 31.2242 53.6951 30.8789 53.6951C30.5337 53.6951 30.2538 54.0169 30.2538 54.4138C30.2538 54.8107 30.5337 55.1324 30.8789 55.1324Z" fill="white"/>
<path d="M57.642 59.9863C59.4986 59.9863 61.0036 58.2541 61.0036 56.1172C61.0036 53.9804 59.4986 52.2482 57.642 52.2482C55.7854 52.2482 54.2804 53.9804 54.2804 56.1172C54.2804 58.2541 55.7854 59.9863 57.642 59.9863Z" fill="#3D4C5E"/>
<path d="M57.1202 55.326C57.4655 55.326 57.7454 55.0042 57.7454 54.6073C57.7454 54.2104 57.4655 53.8887 57.1202 53.8887C56.7749 53.8887 56.495 54.2104 56.495 54.6073C56.495 55.0042 56.7749 55.326 57.1202 55.326Z" fill="white"/>
<path d="M74.4188 47.8661C74.1183 47.779 68.3881 46.0078 59.6499 46.9587C50.9116 47.9096 48.1607 49.7704 45.1959 49.7704C42.231 49.7704 39.4802 47.9121 30.7419 46.9587C22.0036 46.0078 16.2735 47.7814 15.9729 47.8661C15.6723 47.9532 15.7589 49.5962 16.1436 51.0238C16.5308 52.4514 18.2164 52.2675 19.1518 57.5327C20.2699 63.8239 20.871 65.554 30.0253 65.554C37.1164 65.554 39.4802 64.1699 41.4567 56.6882C42.5388 52.5917 44.0777 52.1465 45.1959 52.1465C46.314 52.1465 47.8529 52.5917 48.935 56.6882C50.9116 64.1699 53.2753 65.554 60.3664 65.554C69.5207 65.554 70.1218 63.8239 71.24 57.5327C72.1754 52.2675 73.861 52.4514 74.2481 51.0238C74.6353 49.5962 74.7218 47.9532 74.4188 47.8661ZM37.72 61.1864C36.5586 63.0883 34.4978 63.715 29.2534 63.715C24.009 63.715 21.8569 62.4761 21.2173 58.0288C20.1425 50.5471 19.3273 48.125 30.7996 48.7323C36.2027 49.0179 39.9971 50.2035 39.9971 53.4023C39.9971 56.6011 38.879 59.2846 37.72 61.1864ZM69.1768 58.0288C68.5372 62.4785 66.3827 63.715 61.1407 63.715C55.8987 63.715 53.8356 63.0883 52.6741 61.1864C51.5127 59.2846 50.397 56.6036 50.397 53.4023C50.397 50.2011 54.1914 49.0179 59.5946 48.7323C71.0693 48.1274 70.2517 50.5495 69.1768 58.0288Z" fill="#DB3A7C"/>
<path d="M44.6332 67.3348C44.6332 67.3348 43.3491 64.3369 39.9803 64.3369C33.7861 64.3369 27.1999 73.4494 24.7232 72.1645C21.9267 70.7127 25.6393 69.9578 24.4996 68.235C23.6051 66.8848 16.8097 71.8959 21.4794 77.5798C26.291 83.433 41.9521 80.2366 44.6332 73.2485V67.3348Z" fill="white"/>
<path d="M44.6332 67.3348C44.6332 67.3348 45.9172 64.3369 49.2861 64.3369C55.4803 64.3369 62.0665 73.4494 64.5432 72.1645C67.3397 70.7127 63.627 69.9578 64.7668 68.235C65.6613 66.8848 72.4567 71.8959 67.787 77.5798C62.9754 83.433 47.3143 80.2366 44.6332 73.2485V67.3348Z" fill="white"/>
</svg>
