<svg xmlns="http://www.w3.org/2000/svg" version="1.1" viewBox="-5.0 -10.0 110.0 135.0">
	<g>
		<path d="m50.93 41.359c-2.7188 0-4.9414 2.2188-4.9414 4.9414v4.9414h9.8789l0.003906-4.9414c0-2.7305-2.2227-4.9414-4.9414-4.9414z" />
		<path d="m71.801 34.578c-0.76172-6.25-6.1016-11.102-12.551-11.102-2.3906 0-4.6719 0.66016-6.6484 1.8906-2.6133-5.0391-7.9023-8.3672-13.703-8.3672-8.5 0-15.422 6.9219-15.422 15.422 0 0.91016 0.078126 1.8086 0.23828 2.6992-8.7148 2.0586-15.043 9.8789-15.043 19.039 0 10.801 8.7812 19.578 19.578 19.578h6.3711c-0.019532-0.26172-0.039063-0.53125-0.039063-0.80078l-0.003906-11.648c0-4.6289 3.1406-8.5195 7.3984-9.6914l0.003907-5.2969c0-4.9297 4.0117-8.9414 8.9414-8.9414s8.9414 4.0117 8.9414 8.9414v5.6094c3.7812 1.4492 6.4805 5.1016 6.4805 9.3789v11.648c0 0.26953-0.019531 0.53906-0.039062 0.80078h5.4414c10.801 0 19.578-8.7812 19.578-19.578 0.003906-10.77-8.7539-19.551-19.523-19.582z" />
		<path d="m50.461 61.91c-1.1016 0-2 0.89844-2 2v6.8438c0 1.1016 0.89844 2 2 2 1.1016 0 2-0.89844 2-2v-6.8438c0-1.1094-0.89063-2-2-2z" />
		<path d="m44.641 83h11.648c5.2695 0 9.6016-4.0781 10.012-9.25h-31.68c0.41016 5.1719 4.7383 9.25 10.02 9.25z" />
	</g>
</svg>
