<?xml version="1.0" encoding="utf-8"?>
<!-- Generator: Adobe Illustrator 24.3.0, SVG Export Plug-In . SVG Version: 6.00 Build 0)  -->
<svg version="1.1" id="Layer_1" xmlns="http://www.w3.org/2000/svg" xmlns:xlink="http://www.w3.org/1999/xlink" x="0px" y="0px"
	 viewBox="0 0 1000 1000" style="enable-background:new 0 0 1000 1000;" xml:space="preserve">
<style type="text/css">
	.st0{fill:#183059;}
	.st1{fill:#2A5EBC;}
	.st2{opacity:0.2;fill:#333333;}
	.st3{fill:#EA113F;}
	.st4{fill:#FF812C;}
	.st5{fill:#FFFFFF;}
</style>
<g>
	<g>
		<g>
			<path class="st5" d="M326.7,544.7c-1.9-3.2-4-6.5-6.3-10.2c-2.3-3.6-4.7-7.3-7.2-11c-2.5-3.7-5-7.2-7.6-10.7
				c-2.6-3.5-5-6.6-7.4-9.3v41.2h-10.3v-57.5h8.6c2.2,2.3,4.6,5.1,7.2,8.3c2.6,3.2,5.1,6.5,7.7,9.9c2.6,3.4,5.1,6.9,7.5,10.3
				c2.4,3.5,4.6,6.7,6.4,9.7v-38.2h10.4v57.5H326.7z"/>
			<path class="st5" d="M346.5,523.2c0-3.8,0.6-7.2,1.7-10c1.1-2.9,2.6-5.3,4.5-7.2c1.9-1.9,4-3.3,6.5-4.3c2.4-1,4.9-1.5,7.5-1.5
				c6,0,10.7,1.9,14,5.6c3.4,3.7,5,9.2,5,16.6c0,0.6,0,1.2,0,1.9c0,0.7-0.1,1.3-0.1,1.9h-28.7c0.3,3.5,1.5,6.2,3.7,8.1
				c2.2,1.9,5.4,2.9,9.5,2.9c2.4,0,4.7-0.2,6.7-0.7c2-0.4,3.6-0.9,4.8-1.4l1.3,8.2c-0.6,0.3-1.3,0.6-2.3,0.9c-1,0.3-2.1,0.6-3.3,0.8
				s-2.6,0.5-4,0.6s-2.9,0.2-4.4,0.2c-3.8,0-7.2-0.6-10-1.7c-2.8-1.1-5.2-2.7-7-4.7c-1.8-2-3.2-4.4-4.1-7.1
				C347,529.5,346.5,526.5,346.5,523.2z M375.7,518.7c0-1.4-0.2-2.7-0.6-3.9c-0.4-1.2-1-2.3-1.7-3.2c-0.7-0.9-1.7-1.6-2.7-2.2
				c-1.1-0.5-2.4-0.8-3.9-0.8c-1.6,0-2.9,0.3-4.1,0.9s-2.2,1.3-3,2.3c-0.8,0.9-1.4,2-1.9,3.2c-0.4,1.2-0.7,2.5-0.9,3.7H375.7z"/>
			<path class="st5" d="M412.1,514.6l9.2-13.3h10.6l-14.6,20.8c3.1,3.8,6,7.7,8.8,11.6c2.8,3.9,5.1,7.6,6.9,11h-11
				c-0.5-1-1.2-2.1-2-3.4c-0.8-1.2-1.7-2.5-2.6-3.8c-0.9-1.3-1.9-2.6-2.9-3.9c-1-1.3-2-2.5-2.9-3.7c-2,2.3-3.9,4.8-5.7,7.5
				s-3.4,5.1-4.6,7.3h-10.3c0.8-1.7,1.8-3.4,3-5.3c1.2-1.8,2.5-3.7,3.9-5.7c1.4-1.9,2.8-3.8,4.2-5.8c1.5-1.9,2.9-3.8,4.3-5.5
				l-14.8-21.2h11.1L412.1,514.6z"/>
			<path class="st5" d="M439.9,489.9l10.1-1.7v13.1h15.5v8.4H450v17.7c0,3.5,0.6,6,1.7,7.5c1.1,1.5,3,2.2,5.7,2.2
				c1.8,0,3.5-0.2,4.9-0.6c1.4-0.4,2.5-0.7,3.4-1.1l1.7,8c-1.2,0.5-2.7,1-4.6,1.5c-1.9,0.5-4.1,0.8-6.7,0.8c-3.1,0-5.7-0.4-7.8-1.2
				c-2.1-0.8-3.7-2-5-3.6c-1.2-1.6-2.1-3.5-2.6-5.7c-0.5-2.2-0.7-4.8-0.7-7.7V489.9z"/>
			<path class="st5" d="M514.6,544.7c-1.9-3.2-4-6.5-6.3-10.2c-2.3-3.6-4.7-7.3-7.2-11c-2.5-3.7-5-7.2-7.6-10.7
				c-2.6-3.5-5-6.6-7.4-9.3v41.2h-10.3v-57.5h8.6c2.2,2.3,4.6,5.1,7.2,8.3c2.6,3.2,5.1,6.5,7.7,9.9c2.6,3.4,5.1,6.9,7.5,10.3
				c2.4,3.5,4.6,6.7,6.4,9.7v-38.2h10.4v57.5H514.6z"/>
			<path class="st5" d="M534.4,523.2c0-3.8,0.6-7.2,1.7-10c1.1-2.9,2.6-5.3,4.5-7.2c1.9-1.9,4-3.3,6.5-4.3c2.4-1,4.9-1.5,7.5-1.5
				c6,0,10.7,1.9,14,5.6c3.4,3.7,5,9.2,5,16.6c0,0.6,0,1.2,0,1.9c0,0.7-0.1,1.3-0.1,1.9h-28.7c0.3,3.5,1.5,6.2,3.7,8.1
				c2.2,1.9,5.4,2.9,9.5,2.9c2.4,0,4.7-0.2,6.7-0.7c2-0.4,3.6-0.9,4.8-1.4l1.3,8.2c-0.6,0.3-1.3,0.6-2.3,0.9c-1,0.3-2.1,0.6-3.3,0.8
				s-2.6,0.5-4,0.6s-2.9,0.2-4.4,0.2c-3.8,0-7.2-0.6-10-1.7c-2.8-1.1-5.2-2.7-7-4.7c-1.8-2-3.2-4.4-4.1-7.1
				C534.8,529.5,534.4,526.5,534.4,523.2z M563.6,518.7c0-1.4-0.2-2.7-0.6-3.9c-0.4-1.2-1-2.3-1.7-3.2c-0.7-0.9-1.7-1.6-2.7-2.2
				c-1.1-0.5-2.4-0.8-3.9-0.8c-1.6,0-2.9,0.3-4.1,0.9s-2.2,1.3-3,2.3c-0.8,0.9-1.4,2-1.9,3.2c-0.4,1.2-0.7,2.5-0.9,3.7H563.6z"/>
			<path class="st5" d="M583.8,489.9l10.1-1.7v13.1h15.5v8.4h-15.5v17.7c0,3.5,0.6,6,1.7,7.5c1.1,1.5,3,2.2,5.7,2.2
				c1.8,0,3.5-0.2,4.9-0.6c1.4-0.4,2.5-0.7,3.4-1.1l1.7,8c-1.2,0.5-2.7,1-4.6,1.5c-1.9,0.5-4.1,0.8-6.7,0.8c-3.1,0-5.7-0.4-7.8-1.2
				c-2.1-0.8-3.7-2-5-3.6c-1.2-1.6-2.1-3.5-2.6-5.7c-0.5-2.2-0.7-4.8-0.7-7.7V489.9z"/>
			<path class="st5" d="M631.1,539.2c0,1.9-0.7,3.5-2,4.7c-1.3,1.2-2.9,1.8-4.7,1.8c-1.9,0-3.5-0.6-4.7-1.8
				c-1.3-1.2-1.9-2.8-1.9-4.7c0-1.9,0.6-3.5,1.9-4.8c1.3-1.2,2.9-1.9,4.7-1.9c1.8,0,3.4,0.6,4.7,1.9
				C630.5,535.7,631.1,537.3,631.1,539.2z"/>
			<path class="st5" d="M676.4,493.7c0.9,3,1.8,6.1,2.8,9.3c1,3.2,2,6.5,3.1,9.7c1.1,3.2,2.2,6.4,3.2,9.5c1.1,3.1,2.1,6.1,3.1,8.8
				c0.8-3,1.6-6.2,2.4-9.7c0.8-3.5,1.6-7.2,2.3-11c0.8-3.8,1.5-7.6,2.3-11.6c0.7-3.9,1.5-7.8,2.1-11.6h10.8
				c-1.9,10.4-4.1,20.4-6.5,30c-2.4,9.6-5,18.8-8,27.5h-10.1c-4.3-11.2-8.5-23.4-12.5-36.6c-2.1,6.7-4.1,13.1-6.2,19.1
				c-2.1,6-4.2,11.9-6.3,17.5h-10c-3-8.7-5.7-17.9-8-27.5c-2.4-9.6-4.5-19.6-6.4-30h11.2c0.7,3.8,1.4,7.6,2.1,11.5
				c0.7,3.9,1.5,7.8,2.3,11.6c0.8,3.8,1.6,7.5,2.5,11c0.8,3.5,1.7,6.8,2.5,9.8c1.1-2.8,2.1-5.8,3.2-8.9c1.1-3.1,2.1-6.3,3.2-9.5
				c1.1-3.2,2.1-6.5,3-9.7c1-3.2,1.9-6.3,2.7-9.3H676.4z"/>
			<path class="st5" d="M754.7,523c0,3.4-0.5,6.6-1.5,9.4c-1,2.8-2.4,5.2-4.2,7.2s-4,3.5-6.6,4.6s-5.4,1.7-8.5,1.7
				c-3.1,0-5.9-0.6-8.5-1.7c-2.6-1.1-4.7-2.7-6.6-4.6s-3.3-4.4-4.3-7.2c-1-2.8-1.5-5.9-1.5-9.4s0.5-6.5,1.5-9.3
				c1-2.8,2.5-5.2,4.3-7.2s4.1-3.5,6.6-4.6c2.6-1.1,5.4-1.6,8.4-1.6c3,0,5.9,0.5,8.4,1.6c2.6,1.1,4.8,2.6,6.6,4.6
				c1.8,2,3.3,4.4,4.3,7.2C754.2,516.4,754.7,519.6,754.7,523z M744.4,523c0-4.3-0.9-7.7-2.8-10.2c-1.9-2.5-4.5-3.8-7.8-3.8
				c-3.3,0-5.9,1.3-7.8,3.8c-1.9,2.5-2.8,5.9-2.8,10.2c0,4.4,0.9,7.8,2.8,10.4c1.9,2.5,4.5,3.8,7.8,3.8c3.3,0,5.9-1.3,7.8-3.8
				C743.5,530.8,744.4,527.4,744.4,523z"/>
			<path class="st5" d="M789.9,510.4c-0.8-0.3-2-0.6-3.5-0.9c-1.5-0.3-3.2-0.5-5.1-0.5c-1.1,0-2.3,0.1-3.5,0.3
				c-1.2,0.2-2.1,0.4-2.6,0.6v34.8h-10.1v-41.3c1.9-0.7,4.4-1.4,7.3-2c2.9-0.6,6.1-1,9.7-1c0.7,0,1.4,0,2.3,0.1
				c0.9,0.1,1.8,0.2,2.7,0.3c0.9,0.1,1.7,0.3,2.6,0.5c0.8,0.2,1.5,0.4,2,0.5L789.9,510.4z"/>
			<path class="st5" d="M808.7,518.3c1.3-1.3,2.6-2.8,4.1-4.3c1.4-1.5,2.9-3,4.2-4.6c1.4-1.5,2.7-3,4-4.4c1.2-1.4,2.3-2.6,3.2-3.7
				h11.9c-2.8,3.1-5.7,6.3-8.8,9.6c-3.1,3.3-6.2,6.6-9.3,9.7c1.7,1.4,3.4,3.1,5.2,5c1.8,2,3.6,4.1,5.3,6.3c1.7,2.2,3.3,4.4,4.8,6.6
				c1.5,2.2,2.7,4.3,3.7,6.1h-11.6c-1-1.7-2.2-3.5-3.5-5.4c-1.3-1.9-2.7-3.7-4.2-5.5c-1.5-1.8-3-3.4-4.6-5c-1.6-1.6-3.1-2.9-4.6-4
				v19.9h-10.1V482l10.1-1.7V518.3z"/>
			<path class="st5" d="M855.4,537.5c2.7,0,4.6-0.3,5.8-1c1.2-0.6,1.8-1.7,1.8-3.3c0-1.4-0.7-2.6-2-3.6c-1.3-0.9-3.5-2-6.4-3.1
				c-1.8-0.7-3.5-1.4-5-2.1c-1.5-0.7-2.8-1.6-4-2.6c-1.1-1-2-2.2-2.6-3.6c-0.6-1.4-1-3.1-1-5.2c0-4,1.5-7.1,4.4-9.4
				c2.9-2.3,6.9-3.4,12-3.4c2.6,0,5,0.2,7.3,0.7c2.3,0.5,4.1,0.9,5.2,1.4l-1.8,8.1c-1.1-0.5-2.5-1-4.2-1.4c-1.7-0.4-3.7-0.6-6-0.6
				c-2.1,0-3.7,0.3-5,1c-1.3,0.7-1.9,1.8-1.9,3.2c0,0.7,0.1,1.4,0.4,1.9c0.2,0.6,0.7,1.1,1.3,1.5c0.6,0.5,1.4,0.9,2.4,1.4
				c1,0.5,2.2,1,3.7,1.5c2.4,0.9,4.4,1.8,6.1,2.6c1.7,0.9,3,1.8,4.1,2.9c1.1,1.1,1.9,2.3,2.4,3.7c0.5,1.4,0.7,3,0.7,5
				c0,4.1-1.5,7.3-4.6,9.4s-7.5,3.2-13.2,3.2c-3.8,0-6.9-0.3-9.2-1c-2.3-0.6-4-1.1-4.9-1.5l1.7-8.4c1.5,0.6,3.3,1.2,5.4,1.7
				C850.4,537.2,852.8,537.5,855.4,537.5z"/>
		</g>
	</g>
	<g>
		<path class="st1" d="M146.3,540.5v-56.6l-9-9c-3.8-3.8-10.4-1.1-10.4,4.3v81c0,3.3,2.7,6.1,6.1,6.1h81c5.4,0,8.1-6.5,4.3-10.4
			l-9.3-9.3h-56.6C149,546.6,146.3,543.9,146.3,540.5z"/>
		<path class="st2" d="M152.4,546.5c-3.3,0-6.1-2.7-6.1-6.1v-56.6l-4.5-4.5v61c0,5.9,4.8,10.7,10.7,10.7h61l-4.5-4.5H152.4z"/>
		<g>
			<path class="st3" d="M168.2,532.8c-4.9,0-8.8-3.9-8.8-8.8c0-4,2.6-7.3,6.2-8.4v-51.4l-9-9c-3.8-3.8-10.4-1.1-10.4,4.3v24.4v56.6
				c0,3.3,2.7,6.1,6.1,6.1h56.6h24.4c5.4,0,8.1-6.5,4.3-10.4l-9.3-9.3h-51.7C175.4,530.4,172.1,532.8,168.2,532.8z"/>
			<path class="st4" d="M214.6,485c-1.6,0-3-0.4-4.3-1.1l-34.5,35.6l36.4-10.5c0-0.1,0-0.1,0-0.2c0-4.9,3.9-8.8,8.8-8.8
				c4.1,0,7.5,2.8,8.5,6.5H247l-25.3-25.3C220.2,483.5,217.5,485,214.6,485z"/>
			<path class="st4" d="M168.2,515.2c0.1,0,0.2,0,0.3,0l10.9-36.2c-2.5-1.6-4.2-4.3-4.2-7.5c0-4.1,2.8-7.5,6.5-8.5v-21.7l-5.8-5.8
				c-3.8-3.8-10.4-1.1-10.4,4.3v24.4v51.4C166.5,515.3,167.3,515.2,168.2,515.2z"/>
			<path class="st4" d="M192.8,471.5c0,4.9-3.9,8.8-8.8,8.8c-0.1,0-0.2,0-0.3,0l-10.6,35.4l33.9-35c-0.8-1.3-1.3-2.9-1.3-4.5
				c0-3,1.5-5.6,3.7-7.2l-23.2-23.2V463C190.1,464,192.8,467.4,192.8,471.5z"/>
			<path class="st4" d="M221,517.6c-3.2,0-6-1.7-7.5-4.3L177,523.9c0,0.1,0,0.1,0,0.2c0,1-0.2,2-0.5,2.9h51.7h24.4
				c5.4,0,8.1-6.5,4.3-10.4l-5.5-5.5h-22C228.5,514.9,225.1,517.6,221,517.6z"/>
		</g>
		<path class="st2" d="M181.2,526.8h-4.6c-1.2,3.5-4.5,5.9-8.3,5.9c-4.9,0-8.8-3.9-8.8-8.8c0-4,2.6-7.3,6.2-8.4v-51.4l-4.5-4.5v53
			c-3.7,2.4-6.2,6.5-6.2,11.2c0,7.3,5.9,13.3,13.3,13.3c4.7,0,8.8-2.4,11.1-6h53.3l-4.4-4.4L181.2,526.8
			C181.2,526.8,181.2,526.8,181.2,526.8z"/>
	</g>
</g>
</svg>
