<svg xmlns="http://www.w3.org/2000/svg" version="1.1" viewBox="-5.0 -10.0 110.0 135.0">
	<path d="m91.668 22.918c0 8.0508-6.5312 14.582-14.586 14.582-3.8398 0-7.3359-1.4844-9.9414-3.9141l-30.055 15.031c0.26953 1.1094 0.41406 2.2695 0.41406 3.4648 0 1.1953-0.14453 2.3555-0.41406 3.4688l27.621 13.812c2.5781-4.1211 7.1562-6.8633 12.375-6.8633 8.0547 0 14.586 6.5273 14.586 14.582 0 8.0547-6.5312 14.586-14.586 14.586-7.8867 0-14.312-6.2656-14.574-14.09l-29.652-14.824c-2.6016 2.4258-6.0977 3.9141-9.9375 3.9141-8.0547 0-14.586-6.5312-14.586-14.586 0-8.0547 6.5312-14.582 14.586-14.582 3.8398 0 7.3359 1.4844 9.9375 3.9141l30.059-15.031c-0.26953-1.1094-0.41406-2.2695-0.41406-3.4648 0-8.0547 6.5273-14.586 14.582-14.586 8.0547 0 14.586 6.5312 14.586 14.586z" />
</svg>
