<svg xmlns="http://www.w3.org/2000/svg" version="1.1" viewBox="-5.0 -10.0 110.0 135.0">
	<path d="m83.715 53.84c0.46094 0.16797 0.90625 0.35156 1.3398 0.5625 0.48828 0.23438 1.0586 0.22656 1.543-0.023438l1.1562-0.58984c0.66797-0.35547 1.4883-0.22656 2.0195 0.31641l1.1328 1.125 1.1328 1.1328h-0.003906c0.53516 0.53125 0.66406 1.3477 0.31641 2.0156l-0.59375 1.1641c-0.25391 0.47656-0.26172 1.0508-0.019531 1.5352 0.20703 0.4375 0.39062 0.88281 0.55469 1.3398 0.17188 0.51562 0.58203 0.91406 1.1016 1.0742l1.2422 0.40234-0.003907 0.003907c0.72266 0.22266 1.207 0.89453 1.1992 1.6484v3.1953c0.011719 0.75781-0.47656 1.4297-1.1992 1.6562l-1.2422 0.40234h0.003906c-0.51953 0.16016-0.92578 0.55859-1.1016 1.0703-0.16016 0.45703-0.34766 0.90234-0.55469 1.3398-0.24219 0.48828-0.23438 1.0625 0.019531 1.543l0.59375 1.1562c0.34766 0.66797 0.21875 1.4883-0.31641 2.0156l-2.2656 2.2656h0.003907c-0.53125 0.53516-1.3516 0.66406-2.0195 0.31641l-1.1562-0.59375c-0.48047-0.25391-1.0547-0.26172-1.543-0.019531-0.43359 0.20703-0.88281 0.39453-1.3398 0.55469-0.51172 0.17188-0.91016 0.58203-1.0703 1.0977l-0.40234 1.2422c-0.22656 0.72266-0.89844 1.2109-1.6562 1.2031h-3.1953c-0.75391 0.007812-1.4258-0.48047-1.6484-1.2031l-0.40234-1.2422h-0.003906c-0.16016-0.51562-0.55859-0.92578-1.0742-1.0977-0.45703-0.16016-0.90234-0.34766-1.3398-0.55469-0.48438-0.24219-1.0586-0.23438-1.5352 0.019531l-1.1562 0.59375h-0.003907c-0.66797 0.34766-1.4844 0.21875-2.0156-0.31641l-1.1328-1.1328-1.125-1.1328c-0.53906-0.52734-0.66797-1.3477-0.31641-2.0156l0.59375-1.1562c0.25-0.48438 0.25781-1.0547 0.015625-1.543-0.21094-0.4375-0.39844-0.88281-0.5625-1.3359-0.17188-0.51172-0.58203-0.91016-1.0977-1.0703l-1.2383-0.40234c-0.72266-0.22656-1.207-0.89844-1.1992-1.6562v-3.1953c-0.007813-0.75391 0.48047-1.4258 1.1992-1.6523l1.2383-0.40234c0.51562-0.16016 0.92578-0.55859 1.0977-1.0742 0.16016-0.45703 0.35156-0.90625 0.55469-1.3398v-0.003906c0.24219-0.48438 0.23828-1.0547-0.015625-1.5312l-0.59375-1.1641h0.003906c-0.35547-0.66797-0.22656-1.4922 0.31641-2.0195l1.125-1.1328 1.1367-1.125c0.52734-0.54297 1.3477-0.67188 2.0156-0.31641l1.1562 0.58984 0.003907 0.003906c0.47656 0.25 1.0469 0.25781 1.5352 0.019532 0.43359-0.21094 0.88672-0.39453 1.3398-0.5625 0.51562-0.16797 0.91797-0.58203 1.0742-1.1016l0.40234-1.2344 0.003907-0.003906c0.22266-0.71875 0.89453-1.207 1.6484-1.1992h3.1953c0.75781-0.007812 1.4297 0.48047 1.6562 1.1992l0.40234 1.2344v0.003906c0.15625 0.51953 0.55469 0.92969 1.0703 1.0977zm-23.273 22.426c0.38672-0.39844 1.0195-0.40625 1.418-0.019531 0.39844 0.38672 0.40625 1.0195 0.023437 1.418-8.2266 8.5-20.316 12.047-31.832 9.3359s-20.754-11.277-24.328-22.551c-3.5742-11.277-0.95312-23.602 6.8984-32.449 7.8555-8.8477 19.781-12.91 31.402-10.699 1.207 0.22266 2.4023 0.51953 3.5781 0.87891l-1.8711-3.5312c-0.13281-0.23438-0.16406-0.51563-0.089844-0.77344 0.078125-0.26172 0.25391-0.48047 0.49609-0.60547 0.23828-0.125 0.51953-0.15234 0.77734-0.066406 0.25781 0.085937 0.46875 0.26953 0.58984 0.51172l3.0508 5.7578c0.15234 0.26172 0.17578 0.57812 0.0625 0.85938-0.089844 0.23438-0.26563 0.42969-0.49219 0.53516l-5.7617 3.0586h-0.003906c-0.48828 0.25391-1.0898 0.0625-1.3438-0.42578-0.25781-0.48828-0.070313-1.0898 0.41406-1.3477l3.7617-2c-1.1641-0.36719-2.3438-0.66406-3.543-0.88672-10.93-2.082-22.148 1.7383-29.535 10.055-7.3906 8.3203-9.8555 19.914-6.4961 30.52 3.3594 10.609 12.055 18.664 22.887 21.215 10.828 2.5469 22.203-0.79297 29.938-8.7891zm-16.152-40.387c0.63281 0.22656 1.2539 0.48438 1.8594 0.77344 0.67187 0.33203 1.4648 0.32422 2.1289-0.027344l1.6055-0.81641-0.003906-0.003906c0.92969-0.48438 2.0625-0.30469 2.7969 0.44141l3.1289 3.1289c0.74609 0.73047 0.92578 1.8672 0.44141 2.793l-0.81641 1.6094h-0.003907c-0.34766 0.66016-0.35938 1.4531-0.027343 2.125 0.28516 0.60547 0.54297 1.2227 0.76953 1.8555 0.23828 0.71094 0.80859 1.2617 1.5234 1.4805l1.7109 0.5625c1 0.30859 1.6797 1.2383 1.668 2.2852v4.4258c0.011719 1.0469-0.66797 1.9766-1.668 2.2852l-1.7109 0.55859c-0.71875 0.22266-1.2852 0.77734-1.5234 1.4883-0.22656 0.62891-0.48438 1.25-0.76953 1.8516-0.33203 0.67578-0.32031 1.4648 0.027343 2.1289l0.81641 1.6094h0.003906c0.48438 0.92578 0.30469 2.0586-0.44141 2.793l-1.5664 1.5625-1.5625 1.5625c-0.73438 0.74609-1.8672 0.92578-2.7969 0.4375l-1.6055-0.81641h0.003906c-0.66406-0.35156-1.457-0.35938-2.1289-0.023437-0.60547 0.28906-1.2266 0.54297-1.8594 0.76953-0.71094 0.23828-1.2617 0.80469-1.4844 1.5234l-0.55469 1.7148c-0.3125 0.99609-1.2422 1.668-2.2891 1.6602h-4.4219 0.003907c-1.0469 0.007812-1.9766-0.66406-2.293-1.6602l-0.55469-1.7148c-0.21875-0.71875-0.77344-1.2852-1.4844-1.5234-0.62891-0.22656-1.25-0.48047-1.8555-0.76953-0.67188-0.33594-1.4648-0.32812-2.1289 0.023437l-1.6016 0.81641h-0.003906c-0.92578 0.48828-2.0586 0.30859-2.793-0.4375l-1.5664-1.5625-1.5625-1.5664c-0.74609-0.73047-0.92578-1.8633-0.44531-2.793l0.81641-1.6094h0.003907c0.34766-0.66016 0.35938-1.4531 0.03125-2.125-0.28906-0.60547-0.54688-1.2227-0.76953-1.8555-0.24219-0.71094-0.80859-1.2617-1.5273-1.4844l-1.7148-0.55859h0.003906c-1-0.30859-1.6758-1.2383-1.6602-2.2852v-4.4258c-0.015625-1.0469 0.66016-1.9766 1.6602-2.2852l1.7148-0.5625h-0.003906c0.71875-0.21875 1.2852-0.76953 1.5273-1.4805 0.22266-0.63281 0.48047-1.25 0.76953-1.8555 0.32812-0.67188 0.31641-1.4648-0.03125-2.125l-0.81641-1.6094h-0.003906c-0.48047-0.92969-0.30078-2.0625 0.44531-2.793l1.5625-1.5664 1.5664-1.5625c0.73438-0.74609 1.8672-0.92578 2.793-0.44141l1.6016 0.81641 0.003906 0.003906c0.66406 0.35156 1.457 0.35938 2.1289 0.027344 0.60547-0.28906 1.2266-0.54688 1.8555-0.77344 0.71094-0.23828 1.2656-0.80469 1.4844-1.5234l0.55469-1.7148c0.31641-0.99609 1.2461-1.668 2.2891-1.6602h4.4219c1.0469-0.007813 1.9766 0.66406 2.2891 1.6602l0.55469 1.7148c0.21875 0.71875 0.77344 1.2852 1.4844 1.5234zm-6.5391 8.0508v0.003906c4.1953-0.003906 7.9766 2.5234 9.582 6.3984 1.6055 3.8711 0.71875 8.332-2.25 11.297-2.9648 2.9648-7.4219 3.8516-11.297 2.2461s-6.3984-5.3867-6.3984-9.5781c0.003906-5.7227 4.6406-10.363 10.363-10.363zm40.355-28.277c0.45703 0.16016 0.90625 0.34375 1.3398 0.55469 0.48828 0.23828 1.0625 0.23047 1.543-0.023437l1.1562-0.58984c0.67188-0.34766 1.4922-0.22266 2.0234 0.31641l1.125 1.1328 1.1328 1.125c0.53516 0.53125 0.66406 1.3516 0.31641 2.0234l-0.59375 1.1562c-0.25391 0.48047-0.26172 1.0508-0.019532 1.5391 0.20703 0.4375 0.39453 0.88672 0.55469 1.3438 0.17578 0.51172 0.58594 0.91016 1.1055 1.0664l1.2383 0.40234h-0.003906c0.72266 0.22656 1.2109 0.90234 1.2031 1.6562v3.1953c0.007813 0.75781-0.48047 1.4258-1.2031 1.6523l-1.2383 0.40234h0.003906c-0.51953 0.16406-0.92578 0.5625-1.0977 1.0781-0.16016 0.46094-0.34766 0.91016-0.55859 1.3477-0.23828 0.48438-0.23047 1.0547 0.023438 1.5352l0.59375 1.1562c0.34766 0.67188 0.21875 1.4922-0.31641 2.0234l-1.1328 1.1289-1.1289 1.125c-0.53516 0.53516-1.3516 0.66406-2.0234 0.31641l-1.1562-0.58984v-0.003906c-0.48438-0.25-1.0547-0.25781-1.543-0.019531-0.4375 0.21094-0.88281 0.39453-1.3398 0.55469-0.51172 0.17578-0.91016 0.58984-1.0703 1.1055l-0.40234 1.2344v0.003906c-0.22656 0.71875-0.89844 1.207-1.6562 1.1992h-3.1914c-0.75781 0.007813-1.4297-0.48047-1.6562-1.1992l-0.40234-1.2344c-0.15625-0.51953-0.55469-0.92969-1.0703-1.1055-0.45312-0.16016-0.90234-0.34375-1.3398-0.55469-0.48828-0.23828-1.0586-0.23047-1.5391 0.019531l-1.1562 0.58984v0.003906c-0.67188 0.34766-1.4922 0.21875-2.0234-0.31641l-1.1289-1.1367-1.1328-1.1289 0.003906 0.003907c-0.53906-0.53516-0.66797-1.3516-0.31641-2.0234l0.58984-1.1562c0.25391-0.48047 0.26172-1.0547 0.023437-1.543-0.21094-0.43359-0.39844-0.87891-0.5625-1.3359-0.17578-0.51172-0.58594-0.91016-1.1016-1.0703l-1.2383-0.40234c-0.71875-0.22656-1.207-0.89453-1.1992-1.6523v-3.1992c-0.011718-0.75391 0.47656-1.4297 1.1992-1.6523l1.2422-0.40234v-0.003907c0.51562-0.16016 0.92578-0.55469 1.0977-1.0664 0.16406-0.45703 0.34766-0.90625 0.55859-1.3438 0.23828-0.48438 0.23047-1.0586-0.023438-1.5391l-0.58984-1.1562c-0.34766-0.67187-0.22266-1.4922 0.31641-2.0234l1.1328-1.125 1.125-1.1328c0.53125-0.53516 1.3516-0.66406 2.0234-0.31641l1.1562 0.58984v0.003906c0.48047 0.25 1.0547 0.25781 1.5391 0.019532 0.4375-0.21094 0.88672-0.39453 1.3438-0.55469 0.51172-0.17578 0.90625-0.58594 1.0664-1.1016l0.40234-1.2422h0.003906c0.22266-0.72656 0.89844-1.2188 1.6562-1.207h3.1914c0.75781-0.007813 1.4297 0.47656 1.6562 1.1992l0.40234 1.2422c0.16016 0.51562 0.55469 0.92578 1.0664 1.1055zm-4.7188 5.8164c3.0273 0 5.7578 1.8242 6.918 4.6211 1.1562 2.8008 0.51562 6.0195-1.625 8.1641-2.1406 2.1406-5.3633 2.7812-8.1602 1.6211-2.7969-1.1562-4.625-3.8867-4.625-6.918 0-1.9844 0.78906-3.8906 2.1953-5.2969 1.4023-1.4062 3.3086-2.1953 5.2969-2.1914zm5.6016 38.195-0.003906-0.003906c3.0312 0 5.7617 1.8242 6.9219 4.6211 1.1602 2.8008 0.51953 6.0234-1.6211 8.1641-2.1445 2.1445-5.3633 2.7852-8.1641 1.625-2.7969-1.1602-4.6211-3.8906-4.6211-6.9219 0-4.1328 3.3516-7.4844 7.4844-7.4883z" fill-rule="evenodd" />
</svg>
